{
  "source": "C:\\Users\\Peter\\Desktop\\stuff\\MIUN\\quantitative_research\\video_compression\\videos\\BVI-HD\\BVI-HD_CDVL_videos\\ORIG\\Toys_1920x1080_30fps.mp4",
  "output": "C:\\Users\\Peter\\Desktop\\stuff\\MIUN\\quantitative_research\\video_compression\\compressed_videos\\BVI-HD\\hevc\\4\\Toys_1920x1080_30fps_hevc.mp4",
  "codec": "hevc",
  "ok": "Input #0, mov,mp4,m4a,3gp,3g2,mj2, from 'C:\\Users\\Peter\\Desktop\\stuff\\MIUN\\quantitative_research\\video_compression\\videos\\BVI-HD\\BVI-HD_CDVL_videos\\ORIG\\Toys_1920x1080_30fps.mp4':\n  Metadata:\n    major_brand     : isom\n    minor_version   : 512\n    compatible_brands: isomiso2avc1mp41\n    encoder         : Lavf54.28.101\n  Duration: 00:00:05.00, start: 0.000000, bitrate: 270887 kb/s\n  Stream #0:0[0x1](und): Video: h264 (High 4:4:4 Predictive) (avc1 / 0x31637661), yuv420p(progressive), 1920x1080, 270883 kb/s, 30 fps, 30 tbr, 30 tbn (default)\n    Metadata:\n      handler_name    : VideoHandler\n      vendor_id       : [0][0][0][0]\n[out#0/mp4 @ 000001ccdf69ac00] Codec AVOption b:a (set bitrate (in bits/s)) has not been used for any stream. The most likely reason is either wrong type (e.g. a video option with no video streams) or that it is a private option of some decoder which was not actually used for any stream.\nStream mapping:\n  Stream #0:0 -> #0:0 (h264 (native) -> hevc (libx265))\nPress [q] to stop, [?] for help\n[libx265 @ 000001cce02100c0] Unknown option: \"aq-mode.\nx265 [info]: HEVC encoder version 4.1+190-8f11c33ac\nx265 [info]: build info [Windows][GCC 15.1.0][64 bit] 10bit\nx265 [info]: using cpu capabilities: MMX2 SSE2Fast LZCNT SSSE3 SSE4.2 AVX FMA3 BMI2 AVX2\nx265 [info]: Main 10 profile, Level-4 (Main tier)\nx265 [info]: Thread pool created using 12 threads\nx265 [info]: Slices                              : 1\nx265 [info]: frame threads / pool features       : 3 / wpp(17 rows)\nx265 [info]: Coding QT: max CU size, min CU size : 64 / 8\nx265 [info]: Residual QT: max TU size, max depth : 32 / 1 inter / 1 intra\nx265 [info]: ME / range / subpel / merge         : star / 57 / 3 / 3\nx265 [info]: Keyframe min / max / scenecut / bias  : 25 / 250 / 40 / 5.00 \nx265 [info]: Lookahead / bframes / badapt        : 25 / 4 / 2\nx265 [info]: b-pyramid / weightp / weightb       : 1 / 1 / 0\nx265 [info]: References / ref-limit  cu / depth  : 4 / on / on\nx265 [info]: AQ: mode / str / qg-size / cu-tree  : 2 / 1.0 / 32 / 1\nx265 [info]: Rate Control / qCompress            : ABR-4000 kbps / 0.60\nx265 [info]: VBV/HRD buffer / max-rate / init    : 4000 / 4000 / 0.750\nx265 [info]: tools: rect limit-modes rd=4 psy-rd=2.00 rdoq=2 psy-rdoq=1.00\nx265 [info]: tools: rskip mode=1 signhide tmvp strong-intra-smoothing lslices=4\nx265 [info]: tools: deblock sao dhdr10-info\nOutput #0, mp4, to 'C:\\Users\\Peter\\Desktop\\stuff\\MIUN\\quantitative_research\\video_compression\\compressed_videos\\BVI-HD\\hevc\\4\\Toys_1920x1080_30fps_hevc.mp4':\n  Metadata:\n    major_brand     : isom\n    minor_version   : 512\n    compatible_brands: isomiso2avc1mp41\n    encoder         : Lavf62.3.100\n  Stream #0:0(und): Video: hevc (hev1 / 0x31766568), yuv420p10le(tv, progressive), 1920x1080, q=2-31, 4000 kb/s, 30 fps, 15360 tbn (default)\n    Metadata:\n      encoder         : Lavc62.11.100 libx265\n      handler_name    : VideoHandler\n      vendor_id       : [0][0][0][0]\n    Side data:\n      cpb: bitrate max/min/avg: 4000000/0/4000000 buffer size: 4000000 vbv_delay: N/A\nframe=    0 fps=0.0 q=0.0 size=       0KiB time=N/A bitrate=N/A speed=N/A elapsed=0:00:01.84    \nframe=    0 fps=0.0 q=0.0 size=       0KiB time=N/A bitrate=N/A speed=N/A elapsed=0:00:02.41    \nframe=    0 fps=0.0 q=0.0 size=       0KiB time=N/A bitrate=N/A speed=N/A elapsed=0:00:02.94    \nframe=    0 fps=0.0 q=0.0 size=       0KiB time=N/A bitrate=N/A speed=N/A elapsed=0:00:03.45    \nframe=    0 fps=0.0 q=0.0 size=       0KiB time=N/A bitrate=N/A speed=N/A elapsed=0:00:03.98    \nframe=    0 fps=0.0 q=0.0 size=       0KiB time=N/A bitrate=N/A speed=N/A elapsed=0:00:04.51    \nframe=    0 fps=0.0 q=0.0 size=       0KiB time=N/A bitrate=N/A speed=N/A elapsed=0:00:05.09    \nframe=    0 fps=0.0 q=0.0 size=       0KiB time=N/A bitrate=N/A speed=N/A elapsed=0:00:05.63    \nframe=    0 fps=0.0 q=0.0 size=       0KiB time=N/A bitrate=N/A speed=N/A elapsed=0:00:06.16    \nframe=    0 fps=0.0 q=0.0 size=       0KiB time=N/A bitrate=N/A speed=N/A elapsed=0:00:06.68    \nframe=    0 fps=0.0 q=0.0 size=       0KiB time=N/A bitrate=N/A speed=N/A elapsed=0:00:07.20    \nframe=    0 fps=0.0 q=0.0 size=       0KiB time=N/A bitrate=N/A speed=N/A elapsed=0:00:07.73    \nframe=    0 fps=0.0 q=0.0 size=       0KiB time=N/A bitrate=N/A speed=N/A elapsed=0:00:08.25    \nframe=    0 fps=0.0 q=0.0 size=       0KiB time=N/A bitrate=N/A speed=N/A elapsed=0:00:08.76    \nframe=    0 fps=0.0 q=0.0 size=       0KiB time=N/A bitrate=N/A speed=N/A elapsed=0:00:09.32    \nframe=    0 fps=0.0 q=0.0 size=       0KiB time=N/A bitrate=N/A speed=N/A elapsed=0:00:09.83    \nframe=    0 fps=0.0 q=0.0 size=       0KiB time=N/A bitrate=N/A speed=N/A elapsed=0:00:10.36    \nframe=    0 fps=0.0 q=0.0 size=       0KiB time=N/A bitrate=N/A speed=N/A elapsed=0:00:10.92    \nframe=    0 fps=0.0 q=0.0 size=       0KiB time=N/A bitrate=N/A speed=N/A elapsed=0:00:11.46    \nframe=    0 fps=0.0 q=0.0 size=       0KiB time=N/A bitrate=N/A speed=N/A elapsed=0:00:12.01    \nframe=    1 fps=0.1 q=30.3 size=       0KiB time=-00:00:00.03 bitrate=N/A speed=N/A elapsed=0:00:12.53    \nframe=    1 fps=0.1 q=30.3 size=       0KiB time=-00:00:00.03 bitrate=N/A speed=N/A elapsed=0:00:13.05    \nframe=    3 fps=0.2 q=40.8 size=       0KiB time=00:00:00.03 bitrate=  10.6kbits/s speed=0.00246x elapsed=0:00:13.57    \nframe=    3 fps=0.2 q=40.8 size=       0KiB time=00:00:00.03 bitrate=  10.6kbits/s speed=0.00236x elapsed=0:00:14.11    \nframe=    3 fps=0.2 q=40.8 size=       0KiB time=00:00:00.03 bitrate=  10.6kbits/s speed=0.00228x elapsed=0:00:14.64    \nframe=    3 fps=0.2 q=40.8 size=       0KiB time=00:00:00.03 bitrate=  10.6kbits/s speed=0.0022x elapsed=0:00:15.15    \nframe=    4 fps=0.3 q=42.9 size=       0KiB time=00:00:00.06 bitrate=   5.3kbits/s speed=0.00425x elapsed=0:00:15.69    \nframe=    4 fps=0.2 q=42.9 size=       0KiB time=00:00:00.06 bitrate=   5.3kbits/s speed=0.00411x elapsed=0:00:16.20    \nframe=    4 fps=0.2 q=42.9 size=       0KiB time=00:00:00.06 bitrate=   5.3kbits/s speed=0.00398x elapsed=0:00:16.75    \nframe=    4 fps=0.2 q=42.9 size=       0KiB time=00:00:00.06 bitrate=   5.3kbits/s speed=0.00386x elapsed=0:00:17.28    \nframe=    5 fps=0.3 q=40.7 size=       0KiB time=00:00:00.10 bitrate=   3.5kbits/s speed=0.00561x elapsed=0:00:17.82    \nframe=    5 fps=0.3 q=40.7 size=       0KiB time=00:00:00.10 bitrate=   3.5kbits/s speed=0.00545x elapsed=0:00:18.35    \nframe=    6 fps=0.3 q=33.2 size=       0KiB time=00:00:00.13 bitrate=   2.6kbits/s speed=0.00707x elapsed=0:00:18.86    \nframe=    6 fps=0.3 q=33.2 size=       0KiB time=00:00:00.13 bitrate=   2.6kbits/s speed=0.00688x elapsed=0:00:19.38    \nframe=    6 fps=0.3 q=33.2 size=       0KiB time=00:00:00.13 bitrate=   2.6kbits/s speed=0.0067x elapsed=0:00:19.90    \nframe=    7 fps=0.3 q=37.1 size=       0KiB time=00:00:00.16 bitrate=   2.1kbits/s speed=0.00816x elapsed=0:00:20.41    \nframe=    7 fps=0.3 q=37.1 size=       0KiB time=00:00:00.16 bitrate=   2.1kbits/s speed=0.00797x elapsed=0:00:20.92    \nframe=    7 fps=0.3 q=37.1 size=       0KiB time=00:00:00.16 bitrate=   2.1kbits/s speed=0.00777x elapsed=0:00:21.43    \nframe=    7 fps=0.3 q=37.1 size=       0KiB time=00:00:00.16 bitrate=   2.1kbits/s speed=0.00759x elapsed=0:00:21.96    \nframe=    8 fps=0.4 q=38.1 size=       0KiB time=00:00:00.20 bitrate=   1.8kbits/s speed=0.00889x elapsed=0:00:22.48    \nframe=    8 fps=0.3 q=38.1 size=       0KiB time=00:00:00.20 bitrate=   1.8kbits/s speed=0.00868x elapsed=0:00:23.03    \nframe=    8 fps=0.3 q=38.1 size=       0KiB time=00:00:00.20 bitrate=   1.8kbits/s speed=0.00849x elapsed=0:00:23.57    \nframe=    8 fps=0.3 q=38.1 size=       0KiB time=00:00:00.20 bitrate=   1.8kbits/s speed=0.00829x elapsed=0:00:24.13    \nframe=    8 fps=0.3 q=38.1 size=       0KiB time=00:00:00.20 bitrate=   1.8kbits/s speed=0.00808x elapsed=0:00:24.74    \nframe=    8 fps=0.3 q=38.1 size=       0KiB time=00:00:00.20 bitrate=   1.8kbits/s speed=0.00789x elapsed=0:00:25.33    \nframe=    8 fps=0.3 q=38.1 size=       0KiB time=00:00:00.20 bitrate=   1.8kbits/s speed=0.00773x elapsed=0:00:25.88    \nframe=    9 fps=0.3 q=38.9 size=       0KiB time=00:00:00.23 bitrate=   1.5kbits/s speed=0.00884x elapsed=0:00:26.40    \nframe=    9 fps=0.3 q=38.9 size=       0KiB time=00:00:00.23 bitrate=   1.5kbits/s speed=0.00866x elapsed=0:00:26.94    \nframe=    9 fps=0.3 q=38.9 size=       0KiB time=00:00:00.23 bitrate=   1.5kbits/s speed=0.00848x elapsed=0:00:27.51    \nframe=    9 fps=0.3 q=38.9 size=       0KiB time=00:00:00.23 bitrate=   1.5kbits/s speed=0.00831x elapsed=0:00:28.06    \nframe=    9 fps=0.3 q=38.9 size=       0KiB time=00:00:00.23 bitrate=   1.5kbits/s speed=0.00815x elapsed=0:00:28.61    \nframe=    9 fps=0.3 q=38.9 size=       0KiB time=00:00:00.23 bitrate=   1.5kbits/s speed=0.008x elapsed=0:00:29.16    \nframe=    9 fps=0.3 q=38.9 size=       0KiB time=00:00:00.23 bitrate=   1.5kbits/s speed=0.00785x elapsed=0:00:29.70    \nframe=    9 fps=0.3 q=38.9 size=       0KiB time=00:00:00.23 bitrate=   1.5kbits/s speed=0.00771x elapsed=0:00:30.25    \nframe=   10 fps=0.3 q=32.0 size=       0KiB time=00:00:00.26 bitrate=   1.3kbits/s speed=0.00865x elapsed=0:00:30.82    \nframe=   10 fps=0.3 q=32.0 size=       0KiB time=00:00:00.26 bitrate=   1.3kbits/s speed=0.00848x elapsed=0:00:31.42    \nframe=   10 fps=0.3 q=32.0 size=       0KiB time=00:00:00.26 bitrate=   1.3kbits/s speed=0.00834x elapsed=0:00:31.97    \nframe=   10 fps=0.3 q=32.0 size=       0KiB time=00:00:00.26 bitrate=   1.3kbits/s speed=0.00819x elapsed=0:00:32.54    \nframe=   10 fps=0.3 q=32.0 size=       0KiB time=00:00:00.26 bitrate=   1.3kbits/s speed=0.00806x elapsed=0:00:33.07    \nframe=   11 fps=0.3 q=36.1 size=       0KiB time=00:00:00.30 bitrate=   1.2kbits/s speed=0.00892x elapsed=0:00:33.61    \nframe=   11 fps=0.3 q=36.1 size=       0KiB time=00:00:00.30 bitrate=   1.2kbits/s speed=0.00879x elapsed=0:00:34.14    \nframe=   11 fps=0.3 q=36.1 size=       0KiB time=00:00:00.30 bitrate=   1.2kbits/s speed=0.00866x elapsed=0:00:34.66    \nframe=   11 fps=0.3 q=36.1 size=       0KiB time=00:00:00.30 bitrate=   1.2kbits/s speed=0.00853x elapsed=0:00:35.17    \nframe=   11 fps=0.3 q=36.1 size=       0KiB time=00:00:00.30 bitrate=   1.2kbits/s speed=0.0084x elapsed=0:00:35.70    \nframe=   11 fps=0.3 q=36.1 size=       0KiB time=00:00:00.30 bitrate=   1.2kbits/s speed=0.00828x elapsed=0:00:36.22    \nframe=   12 fps=0.3 q=38.9 size=       0KiB time=00:00:00.33 bitrate=   1.1kbits/s speed=0.00907x elapsed=0:00:36.75    \nframe=   12 fps=0.3 q=38.9 size=       0KiB time=00:00:00.33 bitrate=   1.1kbits/s speed=0.00894x elapsed=0:00:37.26    \nframe=   12 fps=0.3 q=38.9 size=       0KiB time=00:00:00.33 bitrate=   1.1kbits/s speed=0.00882x elapsed=0:00:37.80    \nframe=   12 fps=0.3 q=38.9 size=       0KiB time=00:00:00.33 bitrate=   1.1kbits/s speed=0.0087x elapsed=0:00:38.32    \nframe=   13 fps=0.3 q=38.2 size=       0KiB time=00:00:00.36 bitrate=   1.0kbits/s speed=0.00944x elapsed=0:00:38.83    \nframe=   13 fps=0.3 q=38.2 size=       0KiB time=00:00:00.36 bitrate=   1.0kbits/s speed=0.00931x elapsed=0:00:39.36    \nframe=   13 fps=0.3 q=38.2 size=       0KiB time=00:00:00.36 bitrate=   1.0kbits/s speed=0.00918x elapsed=0:00:39.93    \nframe=   14 fps=0.3 q=31.8 size=       0KiB time=00:00:00.40 bitrate=   0.9kbits/s speed=0.00989x elapsed=0:00:40.44    \nframe=   14 fps=0.3 q=31.8 size=       0KiB time=00:00:00.40 bitrate=   0.9kbits/s speed=0.00976x elapsed=0:00:40.96    \nframe=   15 fps=0.4 q=35.8 size=     256KiB time=00:00:00.43 bitrate=4840.4kbits/s speed=0.0104x elapsed=0:00:41.47    \nframe=   15 fps=0.4 q=35.8 size=     256KiB time=00:00:00.43 bitrate=4840.4kbits/s speed=0.0103x elapsed=0:00:42.00    \nframe=   15 fps=0.4 q=35.8 size=     256KiB time=00:00:00.43 bitrate=4840.4kbits/s speed=0.0102x elapsed=0:00:42.53    \nframe=   15 fps=0.3 q=35.8 size=     256KiB time=00:00:00.43 bitrate=4840.4kbits/s speed=0.0101x elapsed=0:00:43.06    \nframe=   15 fps=0.3 q=35.8 size=     256KiB time=00:00:00.43 bitrate=4840.4kbits/s speed=0.00994x elapsed=0:00:43.57    \nframe=   16 fps=0.4 q=38.6 size=     256KiB time=00:00:00.46 bitrate=4494.6kbits/s speed=0.0106x elapsed=0:00:44.10    \nframe=   16 fps=0.4 q=38.6 size=     256KiB time=00:00:00.46 bitrate=4494.6kbits/s speed=0.0105x elapsed=0:00:44.62    \nframe=   16 fps=0.4 q=38.6 size=     256KiB time=00:00:00.46 bitrate=4494.6kbits/s speed=0.0103x elapsed=0:00:45.15    \nframe=   17 fps=0.4 q=38.7 size=     256KiB time=00:00:00.50 bitrate=4195.0kbits/s speed=0.0109x elapsed=0:00:45.67    \nframe=   17 fps=0.4 q=38.7 size=     256KiB time=00:00:00.50 bitrate=4195.0kbits/s speed=0.0108x elapsed=0:00:46.20    \nframe=   18 fps=0.4 q=31.4 size=     256KiB time=00:00:00.53 bitrate=3932.8kbits/s speed=0.0114x elapsed=0:00:46.73    \nframe=   18 fps=0.4 q=31.4 size=     256KiB time=00:00:00.53 bitrate=3932.8kbits/s speed=0.0113x elapsed=0:00:47.24    \nframe=   18 fps=0.4 q=31.4 size=     256KiB time=00:00:00.53 bitrate=3932.8kbits/s speed=0.0112x elapsed=0:00:47.76    \nframe=   18 fps=0.4 q=31.4 size=     256KiB time=00:00:00.53 bitrate=3932.8kbits/s speed=0.011x elapsed=0:00:48.29    \nframe=   19 fps=0.4 q=35.5 size=     256KiB time=00:00:00.56 bitrate=3701.5kbits/s speed=0.0116x elapsed=0:00:48.80    \nframe=   20 fps=0.4 q=38.9 size=     256KiB time=00:00:00.60 bitrate=3495.8kbits/s speed=0.0122x elapsed=0:00:49.32    \nframe=   20 fps=0.4 q=38.9 size=     256KiB time=00:00:00.60 bitrate=3495.8kbits/s speed=0.012x elapsed=0:00:49.86    \nframe=   21 fps=0.4 q=31.6 size=     256KiB time=00:00:00.63 bitrate=3311.9kbits/s speed=0.0126x elapsed=0:00:50.41    \nframe=   22 fps=0.4 q=35.0 size=     256KiB time=00:00:00.63 bitrate=3311.9kbits/s speed=0.0124x elapsed=0:00:50.93    \nframe=   22 fps=0.4 q=35.0 size=     256KiB time=00:00:00.66 bitrate=3146.3kbits/s speed=0.0129x elapsed=0:00:51.48    \nframe=   22 fps=0.4 q=35.0 size=     256KiB time=00:00:00.66 bitrate=3146.3kbits/s speed=0.0128x elapsed=0:00:52.00    \nframe=   22 fps=0.4 q=35.0 size=     256KiB time=00:00:00.66 bitrate=3146.3kbits/s speed=0.0127x elapsed=0:00:52.53    \nframe=   22 fps=0.4 q=35.0 size=     256KiB time=00:00:00.66 bitrate=3146.3kbits/s speed=0.0125x elapsed=0:00:53.12    \nframe=   22 fps=0.4 q=35.0 size=     256KiB time=00:00:00.66 bitrate=3146.3kbits/s speed=0.0124x elapsed=0:00:53.77    \nframe=   22 fps=0.4 q=35.0 size=     256KiB time=00:00:00.66 bitrate=3146.3kbits/s speed=0.0123x elapsed=0:00:54.32    \nframe=   22 fps=0.4 q=35.0 size=     256KiB time=00:00:00.66 bitrate=3146.3kbits/s speed=0.0121x elapsed=0:00:54.95    \nframe=   22 fps=0.4 q=35.0 size=     256KiB time=00:00:00.66 bitrate=3146.3kbits/s speed=0.012x elapsed=0:00:55.48    \nframe=   22 fps=0.4 q=35.0 size=     256KiB time=00:00:00.66 bitrate=3146.3kbits/s speed=0.0119x elapsed=0:00:56.06    \nframe=   22 fps=0.4 q=35.0 size=     256KiB time=00:00:00.66 bitrate=3146.3kbits/s speed=0.0118x elapsed=0:00:56.62    \nframe=   23 fps=0.4 q=37.7 size=     256KiB time=00:00:00.70 bitrate=2996.4kbits/s speed=0.0122x elapsed=0:00:57.18    \nframe=   23 fps=0.4 q=37.7 size=     256KiB time=00:00:00.70 bitrate=2996.4kbits/s speed=0.0121x elapsed=0:00:57.74    \nframe=   23 fps=0.4 q=37.7 size=     256KiB time=00:00:00.70 bitrate=2996.4kbits/s speed=0.012x elapsed=0:00:58.30    \nframe=   23 fps=0.4 q=37.7 size=     256KiB time=00:00:00.70 bitrate=2996.4kbits/s speed=0.0119x elapsed=0:00:58.82    \nframe=   23 fps=0.4 q=37.7 size=     256KiB time=00:00:00.70 bitrate=2996.4kbits/s speed=0.0118x elapsed=0:00:59.36    \nframe=   23 fps=0.4 q=37.7 size=     256KiB time=00:00:00.70 bitrate=2996.4kbits/s speed=0.0117x elapsed=0:00:59.90    \nframe=   23 fps=0.4 q=37.7 size=     256KiB time=00:00:00.70 bitrate=2996.4kbits/s speed=0.0116x elapsed=0:01:00.45    \nframe=   23 fps=0.4 q=37.7 size=     256KiB time=00:00:00.70 bitrate=2996.4kbits/s speed=0.0115x elapsed=0:01:01.04    \nframe=   23 fps=0.4 q=37.7 size=     256KiB time=00:00:00.70 bitrate=2996.4kbits/s speed=0.0114x elapsed=0:01:01.60    \nframe=   23 fps=0.4 q=37.7 size=     256KiB time=00:00:00.70 bitrate=2996.4kbits/s speed=0.0113x elapsed=0:01:02.21    \nframe=   23 fps=0.4 q=37.7 size=     256KiB time=00:00:00.70 bitrate=2996.4kbits/s speed=0.0112x elapsed=0:01:02.75    \nframe=   24 fps=0.4 q=37.7 size=     256KiB time=00:00:00.73 bitrate=2860.2kbits/s speed=0.0116x elapsed=0:01:03.30    \nframe=   24 fps=0.4 q=37.7 size=     256KiB time=00:00:00.73 bitrate=2860.2kbits/s speed=0.0115x elapsed=0:01:03.85    \nframe=   24 fps=0.4 q=37.7 size=     256KiB time=00:00:00.73 bitrate=2860.2kbits/s speed=0.0114x elapsed=0:01:04.38    \nframe=   24 fps=0.4 q=37.7 size=     256KiB time=00:00:00.73 bitrate=2860.2kbits/s speed=0.0113x elapsed=0:01:04.95    \nframe=   25 fps=0.4 q=31.3 size=     256KiB time=00:00:00.76 bitrate=2735.9kbits/s speed=0.0117x elapsed=0:01:05.47    \nframe=   25 fps=0.4 q=31.3 size=     256KiB time=00:00:00.76 bitrate=2735.9kbits/s speed=0.0116x elapsed=0:01:06.00    \nframe=   25 fps=0.4 q=31.3 size=     256KiB time=00:00:00.76 bitrate=2735.9kbits/s speed=0.0115x elapsed=0:01:06.54    \nframe=   25 fps=0.4 q=31.3 size=     256KiB time=00:00:00.76 bitrate=2735.9kbits/s speed=0.0114x elapsed=0:01:07.14    \nframe=   25 fps=0.4 q=31.3 size=     256KiB time=00:00:00.76 bitrate=2735.9kbits/s speed=0.0113x elapsed=0:01:07.66    \nframe=   25 fps=0.4 q=31.3 size=     256KiB time=00:00:00.76 bitrate=2735.9kbits/s speed=0.0112x elapsed=0:01:08.24    \nframe=   27 fps=0.4 q=37.8 size=     256KiB time=00:00:00.83 bitrate=2517.0kbits/s speed=0.0121x elapsed=0:01:08.77    \nframe=   27 fps=0.4 q=37.8 size=     256KiB time=00:00:00.83 bitrate=2517.0kbits/s speed=0.012x elapsed=0:01:09.32    \nframe=   27 fps=0.4 q=37.8 size=     256KiB time=00:00:00.83 bitrate=2517.0kbits/s speed=0.0119x elapsed=0:01:09.86    \nframe=   27 fps=0.4 q=37.8 size=     256KiB time=00:00:00.83 bitrate=2517.0kbits/s speed=0.0118x elapsed=0:01:10.40    \nframe=   27 fps=0.4 q=37.8 size=     256KiB time=00:00:00.83 bitrate=2517.0kbits/s speed=0.0117x elapsed=0:01:10.94    \nframe=   27 fps=0.4 q=37.8 size=     256KiB time=00:00:00.83 bitrate=2517.0kbits/s speed=0.0117x elapsed=0:01:11.46    \nframe=   28 fps=0.4 q=37.5 size=     256KiB time=00:00:00.86 bitrate=2420.2kbits/s speed=0.012x elapsed=0:01:11.98    \nframe=   28 fps=0.4 q=37.5 size=     256KiB time=00:00:00.86 bitrate=2420.2kbits/s speed=0.0119x elapsed=0:01:12.52    \nframe=   28 fps=0.4 q=37.5 size=     256KiB time=00:00:00.86 bitrate=2420.2kbits/s speed=0.0119x elapsed=0:01:13.11    \nframe=   28 fps=0.4 q=37.5 size=     256KiB time=00:00:00.86 bitrate=2420.2kbits/s speed=0.0118x elapsed=0:01:13.64    \nframe=   29 fps=0.4 q=37.7 size=     256KiB time=00:00:00.90 bitrate=2330.6kbits/s speed=0.0121x elapsed=0:01:14.17    \nframe=   29 fps=0.4 q=37.7 size=     256KiB time=00:00:00.90 bitrate=2330.6kbits/s speed=0.012x elapsed=0:01:14.70    \nframe=   29 fps=0.4 q=37.7 size=     256KiB time=00:00:00.90 bitrate=2330.6kbits/s speed=0.012x elapsed=0:01:15.27    \nframe=   29 fps=0.4 q=37.7 size=     256KiB time=00:00:00.90 bitrate=2330.6kbits/s speed=0.0119x elapsed=0:01:15.82    \nframe=   29 fps=0.4 q=37.7 size=     256KiB time=00:00:00.90 bitrate=2330.6kbits/s speed=0.0118x elapsed=0:01:16.35    \nframe=   29 fps=0.4 q=37.7 size=     256KiB time=00:00:00.90 bitrate=2330.6kbits/s speed=0.0117x elapsed=0:01:16.87    \nframe=   29 fps=0.4 q=37.7 size=     256KiB time=00:00:00.90 bitrate=2330.6kbits/s speed=0.0116x elapsed=0:01:17.41    \nframe=   29 fps=0.4 q=37.7 size=     256KiB time=00:00:00.90 bitrate=2330.6kbits/s speed=0.0115x elapsed=0:01:17.95    \nframe=   29 fps=0.4 q=37.7 size=     256KiB time=00:00:00.90 bitrate=2330.6kbits/s speed=0.0115x elapsed=0:01:18.47    \nframe=   30 fps=0.4 q=31.2 size=     256KiB time=00:00:00.93 bitrate=2247.3kbits/s speed=0.0118x elapsed=0:01:19.02    \nframe=   31 fps=0.4 q=34.8 size=     256KiB time=00:00:00.96 bitrate=2169.8kbits/s speed=0.0122x elapsed=0:01:19.55    \nframe=   31 fps=0.4 q=34.8 size=     256KiB time=00:00:00.96 bitrate=2169.8kbits/s speed=0.0121x elapsed=0:01:20.06    \nframe=   31 fps=0.4 q=34.8 size=     256KiB time=00:00:00.96 bitrate=2169.8kbits/s speed=0.012x elapsed=0:01:20.59    \nframe=   31 fps=0.4 q=34.8 size=     256KiB time=00:00:00.96 bitrate=2169.8kbits/s speed=0.0119x elapsed=0:01:21.16    \nframe=   31 fps=0.4 q=34.8 size=     256KiB time=00:00:00.96 bitrate=2169.8kbits/s speed=0.0118x elapsed=0:01:21.78    \nframe=   31 fps=0.4 q=34.8 size=     256KiB time=00:00:00.96 bitrate=2169.8kbits/s speed=0.0117x elapsed=0:01:22.36    \nframe=   31 fps=0.4 q=34.8 size=     256KiB time=00:00:00.96 bitrate=2169.8kbits/s speed=0.0116x elapsed=0:01:22.97    \nframe=   31 fps=0.4 q=34.8 size=     256KiB time=00:00:00.96 bitrate=2169.8kbits/s speed=0.0116x elapsed=0:01:23.61    \nframe=   31 fps=0.4 q=34.8 size=     256KiB time=00:00:00.96 bitrate=2169.8kbits/s speed=0.0115x elapsed=0:01:24.22    \nframe=   31 fps=0.4 q=34.8 size=     256KiB time=00:00:00.96 bitrate=2169.8kbits/s speed=0.0114x elapsed=0:01:24.75    \nframe=   31 fps=0.4 q=34.8 size=     256KiB time=00:00:00.96 bitrate=2169.8kbits/s speed=0.0113x elapsed=0:01:25.31    \nframe=   31 fps=0.4 q=34.8 size=     256KiB time=00:00:00.96 bitrate=2169.8kbits/s speed=0.0113x elapsed=0:01:25.84    \nframe=   32 fps=0.4 q=37.3 size=     256KiB time=00:00:01.00 bitrate=2097.5kbits/s speed=0.0116x elapsed=0:01:26.40    \nframe=   32 fps=0.4 q=37.3 size=     256KiB time=00:00:01.00 bitrate=2097.5kbits/s speed=0.0115x elapsed=0:01:26.98    \nframe=   32 fps=0.4 q=37.3 size=     256KiB time=00:00:01.00 bitrate=2097.5kbits/s speed=0.0114x elapsed=0:01:27.50    \nframe=   32 fps=0.4 q=37.3 size=     256KiB time=00:00:01.00 bitrate=2097.5kbits/s speed=0.0114x elapsed=0:01:28.02    \nframe=   32 fps=0.4 q=37.3 size=     256KiB time=00:00:01.00 bitrate=2097.5kbits/s speed=0.0113x elapsed=0:01:28.53    \nframe=   33 fps=0.4 q=37.3 size=     256KiB time=00:00:01.03 bitrate=2029.8kbits/s speed=0.0116x elapsed=0:01:29.08    \nframe=   34 fps=0.4 q=30.9 size=     256KiB time=00:00:01.06 bitrate=1966.4kbits/s speed=0.0119x elapsed=0:01:29.61    \nframe=   34 fps=0.4 q=30.9 size=     256KiB time=00:00:01.06 bitrate=1966.4kbits/s speed=0.0118x elapsed=0:01:30.17    \nframe=   35 fps=0.4 q=34.6 size=     512KiB time=00:00:01.10 bitrate=3813.3kbits/s speed=0.0121x elapsed=0:01:30.69    \nframe=   35 fps=0.4 q=34.6 size=     512KiB time=00:00:01.10 bitrate=3813.3kbits/s speed=0.0121x elapsed=0:01:31.21    \nframe=   35 fps=0.4 q=34.6 size=     512KiB time=00:00:01.10 bitrate=3813.3kbits/s speed=0.012x elapsed=0:01:31.73    \nframe=   35 fps=0.4 q=34.6 size=     512KiB time=00:00:01.10 bitrate=3813.3kbits/s speed=0.0119x elapsed=0:01:32.25    \nframe=   35 fps=0.4 q=34.6 size=     512KiB time=00:00:01.10 bitrate=3813.3kbits/s speed=0.0119x elapsed=0:01:32.79    \nframe=   35 fps=0.4 q=34.6 size=     512KiB time=00:00:01.10 bitrate=3813.3kbits/s speed=0.0118x elapsed=0:01:33.32    \nframe=   35 fps=0.4 q=34.6 size=     512KiB time=00:00:01.10 bitrate=3813.3kbits/s speed=0.0117x elapsed=0:01:33.86    \nframe=   36 fps=0.4 q=37.5 size=     512KiB time=00:00:01.13 bitrate=3701.2kbits/s speed=0.012x elapsed=0:01:34.38    \nframe=   36 fps=0.4 q=37.5 size=     512KiB time=00:00:01.13 bitrate=3701.2kbits/s speed=0.0119x elapsed=0:01:34.90    \nframe=   36 fps=0.4 q=37.5 size=     512KiB time=00:00:01.13 bitrate=3701.2kbits/s speed=0.0119x elapsed=0:01:35.45    \nframe=   37 fps=0.4 q=37.4 size=     512KiB time=00:00:01.16 bitrate=3595.4kbits/s speed=0.0122x elapsed=0:01:35.98    \nframe=   38 fps=0.4 q=31.2 size=     512KiB time=00:00:01.20 bitrate=3495.5kbits/s speed=0.0124x elapsed=0:01:36.50    \nframe=   38 fps=0.4 q=31.2 size=     512KiB time=00:00:01.20 bitrate=3495.5kbits/s speed=0.0124x elapsed=0:01:37.03    \nframe=   39 fps=0.4 q=34.4 size=     512KiB time=00:00:01.23 bitrate=3401.1kbits/s speed=0.0126x elapsed=0:01:37.56    \nframe=   39 fps=0.4 q=34.4 size=     512KiB time=00:00:01.23 bitrate=3401.1kbits/s speed=0.0126x elapsed=0:01:38.08    \nframe=   39 fps=0.4 q=34.4 size=     512KiB time=00:00:01.23 bitrate=3401.1kbits/s speed=0.0125x elapsed=0:01:38.62    \nframe=   39 fps=0.4 q=34.4 size=     512KiB time=00:00:01.23 bitrate=3401.1kbits/s speed=0.0124x elapsed=0:01:39.15    \nframe=   40 fps=0.4 q=37.1 size=     512KiB time=00:00:01.26 bitrate=3311.6kbits/s speed=0.0127x elapsed=0:01:39.67    \nframe=   40 fps=0.4 q=37.1 size=     512KiB time=00:00:01.26 bitrate=3311.6kbits/s speed=0.0126x elapsed=0:01:40.20    \nframe=   40 fps=0.4 q=37.1 size=     512KiB time=00:00:01.26 bitrate=3311.6kbits/s speed=0.0126x elapsed=0:01:40.75    \nframe=   41 fps=0.4 q=37.2 size=     512KiB time=00:00:01.30 bitrate=3226.7kbits/s speed=0.0128x elapsed=0:01:41.29    \nframe=   41 fps=0.4 q=37.2 size=     512KiB time=00:00:01.30 bitrate=3226.7kbits/s speed=0.0128x elapsed=0:01:41.82    \nframe=   42 fps=0.4 q=31.0 size=     512KiB time=00:00:01.33 bitrate=3146.0kbits/s speed=0.013x elapsed=0:01:42.35    \nframe=   42 fps=0.4 q=31.0 size=     512KiB time=00:00:01.33 bitrate=3146.0kbits/s speed=0.013x elapsed=0:01:42.89    \nframe=   42 fps=0.4 q=31.0 size=     512KiB time=00:00:01.33 bitrate=3146.0kbits/s speed=0.0129x elapsed=0:01:43.41    \nframe=   42 fps=0.4 q=31.0 size=     512KiB time=00:00:01.33 bitrate=3146.0kbits/s speed=0.0128x elapsed=0:01:43.94    \nframe=   42 fps=0.4 q=31.0 size=     512KiB time=00:00:01.33 bitrate=3146.0kbits/s speed=0.0128x elapsed=0:01:44.47    \nframe=   42 fps=0.4 q=31.0 size=     512KiB time=00:00:01.33 bitrate=3146.0kbits/s speed=0.0127x elapsed=0:01:44.98    \nframe=   43 fps=0.4 q=34.0 size=     512KiB time=00:00:01.36 bitrate=3069.3kbits/s speed=0.013x elapsed=0:01:45.50    \nframe=   43 fps=0.4 q=34.0 size=     512KiB time=00:00:01.36 bitrate=3069.3kbits/s speed=0.0129x elapsed=0:01:46.02    \nframe=   43 fps=0.4 q=34.0 size=     512KiB time=00:00:01.36 bitrate=3069.3kbits/s speed=0.0128x elapsed=0:01:46.58    \nframe=   43 fps=0.4 q=34.0 size=     512KiB time=00:00:01.36 bitrate=3069.3kbits/s speed=0.0128x elapsed=0:01:47.17    \nframe=   43 fps=0.4 q=34.0 size=     512KiB time=00:00:01.36 bitrate=3069.3kbits/s speed=0.0127x elapsed=0:01:47.73    \nframe=   44 fps=0.4 q=36.9 size=     512KiB time=00:00:01.40 bitrate=2996.2kbits/s speed=0.0129x elapsed=0:01:48.26    \nframe=   45 fps=0.4 q=30.8 size=     512KiB time=00:00:01.40 bitrate=2996.2kbits/s speed=0.0129x elapsed=0:01:48.78    \nframe=   45 fps=0.4 q=30.8 size=     512KiB time=00:00:01.43 bitrate=2926.5kbits/s speed=0.0131x elapsed=0:01:49.33    \nframe=   45 fps=0.4 q=30.8 size=     512KiB time=00:00:01.43 bitrate=2926.5kbits/s speed=0.013x elapsed=0:01:49.87    \nframe=   46 fps=0.4 q=33.8 size=     512KiB time=00:00:01.46 bitrate=2860.0kbits/s speed=0.0133x elapsed=0:01:50.42    \nframe=   46 fps=0.4 q=33.8 size=     512KiB time=00:00:01.46 bitrate=2860.0kbits/s speed=0.0132x elapsed=0:01:50.97    \nframe=   46 fps=0.4 q=33.8 size=     512KiB time=00:00:01.46 bitrate=2860.0kbits/s speed=0.0131x elapsed=0:01:51.59    \nframe=   46 fps=0.4 q=33.8 size=     512KiB time=00:00:01.46 bitrate=2860.0kbits/s speed=0.0131x elapsed=0:01:52.21    \nframe=   46 fps=0.4 q=33.8 size=     512KiB time=00:00:01.46 bitrate=2860.0kbits/s speed=0.013x elapsed=0:01:52.85    \nframe=   46 fps=0.4 q=33.8 size=     512KiB time=00:00:01.46 bitrate=2860.0kbits/s speed=0.0129x elapsed=0:01:53.42    \nframe=   46 fps=0.4 q=33.8 size=     512KiB time=00:00:01.46 bitrate=2860.0kbits/s speed=0.0129x elapsed=0:01:54.03    \nframe=   46 fps=0.4 q=33.8 size=     512KiB time=00:00:01.46 bitrate=2860.0kbits/s speed=0.0128x elapsed=0:01:54.57    \nframe=   46 fps=0.4 q=33.8 size=     512KiB time=00:00:01.46 bitrate=2860.0kbits/s speed=0.0127x elapsed=0:01:55.14    \nframe=   46 fps=0.4 q=33.8 size=     512KiB time=00:00:01.46 bitrate=2860.0kbits/s speed=0.0127x elapsed=0:01:55.66    \nframe=   46 fps=0.4 q=33.8 size=     512KiB time=00:00:01.46 bitrate=2860.0kbits/s speed=0.0126x elapsed=0:01:56.18    \nframe=   46 fps=0.4 q=33.8 size=     512KiB time=00:00:01.46 bitrate=2860.0kbits/s speed=0.0126x elapsed=0:01:56.73    \nframe=   47 fps=0.4 q=36.0 size=     512KiB time=00:00:01.50 bitrate=2796.4kbits/s speed=0.0128x elapsed=0:01:57.25    \nframe=   47 fps=0.4 q=36.0 size=     512KiB time=00:00:01.50 bitrate=2796.4kbits/s speed=0.0127x elapsed=0:01:57.77    \nframe=   48 fps=0.4 q=37.2 size=     512KiB time=00:00:01.53 bitrate=2735.6kbits/s speed=0.013x elapsed=0:01:58.30    \nframe=   48 fps=0.4 q=37.2 size=     512KiB time=00:00:01.53 bitrate=2735.6kbits/s speed=0.0129x elapsed=0:01:58.85    \nframe=   49 fps=0.4 q=30.8 size=     512KiB time=00:00:01.56 bitrate=2677.4kbits/s speed=0.0131x elapsed=0:01:59.38    \nframe=   50 fps=0.4 q=35.7 size=     768KiB time=00:00:01.60 bitrate=3932.4kbits/s speed=0.0133x elapsed=0:01:59.89    \nframe=   50 fps=0.4 q=35.7 size=     768KiB time=00:00:01.60 bitrate=3932.4kbits/s speed=0.0133x elapsed=0:02:00.40    \nframe=   51 fps=0.4 q=37.2 size=     768KiB time=00:00:01.63 bitrate=3852.1kbits/s speed=0.0135x elapsed=0:02:00.92    \nframe=   51 fps=0.4 q=37.2 size=     768KiB time=00:00:01.63 bitrate=3852.1kbits/s speed=0.0134x elapsed=0:02:01.44    \nframe=   51 fps=0.4 q=37.2 size=     768KiB time=00:00:01.63 bitrate=3852.1kbits/s speed=0.0134x elapsed=0:02:01.98    \nframe=   51 fps=0.4 q=37.2 size=     768KiB time=00:00:01.63 bitrate=3852.1kbits/s speed=0.0133x elapsed=0:02:02.51    \nframe=   52 fps=0.4 q=36.9 size=     768KiB time=00:00:01.66 bitrate=3775.1kbits/s speed=0.0135x elapsed=0:02:03.03    \nframe=   52 fps=0.4 q=36.9 size=     768KiB time=00:00:01.66 bitrate=3775.1kbits/s speed=0.0135x elapsed=0:02:03.54    \nframe=   53 fps=0.4 q=37.1 size=     768KiB time=00:00:01.70 bitrate=3701.1kbits/s speed=0.0137x elapsed=0:02:04.05    \nframe=   53 fps=0.4 q=37.1 size=     768KiB time=00:00:01.70 bitrate=3701.1kbits/s speed=0.0136x elapsed=0:02:04.57    \nframe=   54 fps=0.4 q=30.9 size=     768KiB time=00:00:01.73 bitrate=3629.9kbits/s speed=0.0139x elapsed=0:02:05.08    \nframe=   55 fps=0.4 q=34.5 size=     768KiB time=00:00:01.76 bitrate=3561.4kbits/s speed=0.0141x elapsed=0:02:05.60    \nframe=   55 fps=0.4 q=34.5 size=     768KiB time=00:00:01.76 bitrate=3561.4kbits/s speed=0.014x elapsed=0:02:06.12    \nframe=   55 fps=0.4 q=34.5 size=     768KiB time=00:00:01.76 bitrate=3561.4kbits/s speed=0.0139x elapsed=0:02:06.68    \nframe=   56 fps=0.4 q=36.7 size=     768KiB time=00:00:01.80 bitrate=3495.4kbits/s speed=0.0141x elapsed=0:02:07.27    \nframe=   56 fps=0.4 q=36.7 size=     768KiB time=00:00:01.80 bitrate=3495.4kbits/s speed=0.0141x elapsed=0:02:07.81    \nframe=   56 fps=0.4 q=36.7 size=     768KiB time=00:00:01.80 bitrate=3495.4kbits/s speed=0.014x elapsed=0:02:08.32    \nframe=   57 fps=0.4 q=37.1 size=     768KiB time=00:00:01.83 bitrate=3431.9kbits/s speed=0.0142x elapsed=0:02:08.86    \nframe=   57 fps=0.4 q=37.1 size=     768KiB time=00:00:01.83 bitrate=3431.9kbits/s speed=0.0142x elapsed=0:02:09.39    \nframe=   58 fps=0.4 q=30.8 size=     768KiB time=00:00:01.86 bitrate=3370.6kbits/s speed=0.0144x elapsed=0:02:09.93    \nframe=   58 fps=0.4 q=30.8 size=     768KiB time=00:00:01.86 bitrate=3370.6kbits/s speed=0.0143x elapsed=0:02:10.47    \nframe=   58 fps=0.4 q=30.8 size=     768KiB time=00:00:01.86 bitrate=3370.6kbits/s speed=0.0143x elapsed=0:02:10.99    \nframe=   58 fps=0.4 q=30.8 size=     768KiB time=00:00:01.86 bitrate=3370.6kbits/s speed=0.0142x elapsed=0:02:11.54    \nframe=   59 fps=0.4 q=33.9 size=     768KiB time=00:00:01.90 bitrate=3311.5kbits/s speed=0.0144x elapsed=0:02:12.09    \nframe=   59 fps=0.4 q=33.9 size=     768KiB time=00:00:01.90 bitrate=3311.5kbits/s speed=0.0143x elapsed=0:02:12.62    \nframe=   60 fps=0.5 q=37.2 size=     768KiB time=00:00:01.93 bitrate=3254.4kbits/s speed=0.0145x elapsed=0:02:13.15    \nframe=   60 fps=0.4 q=37.2 size=     768KiB time=00:00:01.93 bitrate=3254.4kbits/s speed=0.0145x elapsed=0:02:13.70    \nframe=   60 fps=0.4 q=37.2 size=     768KiB time=00:00:01.93 bitrate=3254.4kbits/s speed=0.0144x elapsed=0:02:14.24    \nframe=   60 fps=0.4 q=37.2 size=     768KiB time=00:00:01.93 bitrate=3254.4kbits/s speed=0.0143x elapsed=0:02:14.76    \nframe=   60 fps=0.4 q=37.2 size=     768KiB time=00:00:01.93 bitrate=3254.4kbits/s speed=0.0143x elapsed=0:02:15.31    \nframe=   60 fps=0.4 q=37.2 size=     768KiB time=00:00:01.93 bitrate=3254.4kbits/s speed=0.0142x elapsed=0:02:15.86    \nframe=   61 fps=0.4 q=37.1 size=     768KiB time=00:00:01.96 bitrate=3199.2kbits/s speed=0.0144x elapsed=0:02:16.39    \nframe=   61 fps=0.4 q=37.1 size=     768KiB time=00:00:01.96 bitrate=3199.2kbits/s speed=0.0144x elapsed=0:02:16.90    \nframe=   63 fps=0.5 q=34.2 size=     768KiB time=00:00:02.03 bitrate=3094.3kbits/s speed=0.0148x elapsed=0:02:17.42    \nframe=   63 fps=0.5 q=34.2 size=     768KiB time=00:00:02.03 bitrate=3094.3kbits/s speed=0.0147x elapsed=0:02:17.94    \nframe=   64 fps=0.5 q=37.2 size=     768KiB time=00:00:02.06 bitrate=3044.4kbits/s speed=0.0149x elapsed=0:02:18.45    \nframe=   64 fps=0.5 q=37.2 size=     768KiB time=00:00:02.06 bitrate=3044.4kbits/s speed=0.0149x elapsed=0:02:18.98    \nframe=   64 fps=0.5 q=37.2 size=     768KiB time=00:00:02.06 bitrate=3044.4kbits/s speed=0.0148x elapsed=0:02:19.52    \nframe=   64 fps=0.5 q=37.2 size=     768KiB time=00:00:02.06 bitrate=3044.4kbits/s speed=0.0148x elapsed=0:02:20.07    \nframe=   64 fps=0.5 q=37.2 size=     768KiB time=00:00:02.06 bitrate=3044.4kbits/s speed=0.0147x elapsed=0:02:20.58    \nframe=   65 fps=0.5 q=36.9 size=     768KiB time=00:00:02.10 bitrate=2996.1kbits/s speed=0.0149x elapsed=0:02:21.11    \nframe=   65 fps=0.5 q=36.9 size=     768KiB time=00:00:02.10 bitrate=2996.1kbits/s speed=0.0148x elapsed=0:02:21.65    \nframe=   65 fps=0.5 q=36.9 size=     768KiB time=00:00:02.10 bitrate=2996.1kbits/s speed=0.0148x elapsed=0:02:22.17    \nframe=   66 fps=0.5 q=30.7 size=     768KiB time=00:00:02.13 bitrate=2949.3kbits/s speed=0.015x elapsed=0:02:22.69    \nframe=   66 fps=0.5 q=30.7 size=     768KiB time=00:00:02.13 bitrate=2949.3kbits/s speed=0.0149x elapsed=0:02:23.22    \nframe=   66 fps=0.5 q=30.7 size=     768KiB time=00:00:02.13 bitrate=2949.3kbits/s speed=0.0148x elapsed=0:02:23.75    \nframe=   67 fps=0.5 q=33.8 size=    1024KiB time=00:00:02.16 bitrate=3871.8kbits/s speed=0.015x elapsed=0:02:24.27    \nframe=   67 fps=0.5 q=33.8 size=    1024KiB time=00:00:02.16 bitrate=3871.8kbits/s speed=0.015x elapsed=0:02:24.77    \nframe=   67 fps=0.5 q=33.8 size=    1024KiB time=00:00:02.16 bitrate=3871.8kbits/s speed=0.0149x elapsed=0:02:25.30    \nframe=   67 fps=0.5 q=33.8 size=    1024KiB time=00:00:02.16 bitrate=3871.8kbits/s speed=0.0149x elapsed=0:02:25.82    \nframe=   68 fps=0.5 q=37.1 size=    1024KiB time=00:00:02.20 bitrate=3813.2kbits/s speed=0.015x elapsed=0:02:26.35    \nframe=   69 fps=0.5 q=30.8 size=    1024KiB time=00:00:02.23 bitrate=3756.3kbits/s speed=0.0152x elapsed=0:02:26.85    \nframe=   70 fps=0.5 q=33.7 size=    1024KiB time=00:00:02.26 bitrate=3701.0kbits/s speed=0.0154x elapsed=0:02:27.38    \nframe=   70 fps=0.5 q=33.7 size=    1024KiB time=00:00:02.26 bitrate=3701.0kbits/s speed=0.0153x elapsed=0:02:27.89    \nframe=   70 fps=0.5 q=33.7 size=    1024KiB time=00:00:02.26 bitrate=3701.0kbits/s speed=0.0153x elapsed=0:02:28.46    \nframe=   70 fps=0.5 q=33.7 size=    1024KiB time=00:00:02.26 bitrate=3701.0kbits/s speed=0.0152x elapsed=0:02:29.02    \nframe=   71 fps=0.5 q=36.3 size=    1024KiB time=00:00:02.30 bitrate=3647.4kbits/s speed=0.0154x elapsed=0:02:29.62    \nframe=   71 fps=0.5 q=36.3 size=    1024KiB time=00:00:02.30 bitrate=3647.4kbits/s speed=0.0153x elapsed=0:02:30.17    \nframe=   71 fps=0.5 q=36.3 size=    1024KiB time=00:00:02.30 bitrate=3647.4kbits/s speed=0.0153x elapsed=0:02:30.69    \nframe=   71 fps=0.5 q=36.3 size=    1024KiB time=00:00:02.30 bitrate=3647.4kbits/s speed=0.0152x elapsed=0:02:31.21    \nframe=   71 fps=0.5 q=36.3 size=    1024KiB time=00:00:02.30 bitrate=3647.4kbits/s speed=0.0152x elapsed=0:02:31.73    \nframe=   72 fps=0.5 q=36.6 size=    1024KiB time=00:00:02.33 bitrate=3595.3kbits/s speed=0.0153x elapsed=0:02:32.26    \nframe=   74 fps=0.5 q=33.5 size=    1024KiB time=00:00:02.40 bitrate=3495.4kbits/s speed=0.0157x elapsed=0:02:32.80    \nframe=   74 fps=0.5 q=33.5 size=    1024KiB time=00:00:02.40 bitrate=3495.4kbits/s speed=0.0157x elapsed=0:02:33.33    \nframe=   74 fps=0.5 q=33.5 size=    1024KiB time=00:00:02.40 bitrate=3495.4kbits/s speed=0.0156x elapsed=0:02:33.85    \nframe=   74 fps=0.5 q=33.5 size=    1024KiB time=00:00:02.40 bitrate=3495.4kbits/s speed=0.0155x elapsed=0:02:34.38    \nframe=   75 fps=0.5 q=36.4 size=    1024KiB time=00:00:02.43 bitrate=3447.5kbits/s speed=0.0157x elapsed=0:02:34.91    \nframe=   75 fps=0.5 q=36.4 size=    1024KiB time=00:00:02.43 bitrate=3447.5kbits/s speed=0.0157x elapsed=0:02:35.45    \nframe=   76 fps=0.5 q=36.5 size=    1024KiB time=00:00:02.46 bitrate=3400.9kbits/s speed=0.0158x elapsed=0:02:35.98    \nframe=   76 fps=0.5 q=36.5 size=    1024KiB time=00:00:02.46 bitrate=3400.9kbits/s speed=0.0158x elapsed=0:02:36.49    \nframe=   76 fps=0.5 q=36.5 size=    1024KiB time=00:00:02.46 bitrate=3400.9kbits/s speed=0.0157x elapsed=0:02:37.01    \nframe=   77 fps=0.5 q=30.4 size=    1024KiB time=00:00:02.50 bitrate=3355.6kbits/s speed=0.0159x elapsed=0:02:37.53    \nframe=   77 fps=0.5 q=30.4 size=    1024KiB time=00:00:02.50 bitrate=3355.6kbits/s speed=0.0158x elapsed=0:02:38.06    \nframe=   77 fps=0.5 q=30.4 size=    1024KiB time=00:00:02.50 bitrate=3355.6kbits/s speed=0.0158x elapsed=0:02:38.59    \nframe=   78 fps=0.5 q=33.4 size=    1024KiB time=00:00:02.53 bitrate=3311.4kbits/s speed=0.0159x elapsed=0:02:39.11    \nframe=   78 fps=0.5 q=33.4 size=    1024KiB time=00:00:02.53 bitrate=3311.4kbits/s speed=0.0159x elapsed=0:02:39.64    \nframe=   78 fps=0.5 q=33.4 size=    1024KiB time=00:00:02.53 bitrate=3311.4kbits/s speed=0.0158x elapsed=0:02:40.15    \nframe=   78 fps=0.5 q=33.4 size=    1024KiB time=00:00:02.53 bitrate=3311.4kbits/s speed=0.0158x elapsed=0:02:40.67    \nframe=   79 fps=0.5 q=36.1 size=    1024KiB time=00:00:02.56 bitrate=3268.4kbits/s speed=0.0159x elapsed=0:02:41.18    \nframe=   80 fps=0.5 q=36.0 size=    1024KiB time=00:00:02.60 bitrate=3226.5kbits/s speed=0.0161x elapsed=0:02:41.71    \nframe=   80 fps=0.5 q=36.0 size=    1024KiB time=00:00:02.60 bitrate=3226.5kbits/s speed=0.016x elapsed=0:02:42.22    \nframe=   81 fps=0.5 q=30.3 size=    1024KiB time=00:00:02.63 bitrate=3185.7kbits/s speed=0.0162x elapsed=0:02:42.74    \nframe=   82 fps=0.5 q=33.4 size=    1024KiB time=00:00:02.66 bitrate=3145.9kbits/s speed=0.0163x elapsed=0:02:43.25    \nframe=   82 fps=0.5 q=33.4 size=    1024KiB time=00:00:02.66 bitrate=3145.9kbits/s speed=0.0163x elapsed=0:02:43.77    \nframe=   82 fps=0.5 q=33.4 size=    1024KiB time=00:00:02.66 bitrate=3145.9kbits/s speed=0.0162x elapsed=0:02:44.28    \nframe=   83 fps=0.5 q=36.3 size=    1280KiB time=00:00:02.70 bitrate=3883.7kbits/s speed=0.0164x elapsed=0:02:44.79    \nframe=   83 fps=0.5 q=36.3 size=    1280KiB time=00:00:02.70 bitrate=3883.7kbits/s speed=0.0163x elapsed=0:02:45.32    \nframe=   84 fps=0.5 q=36.5 size=    1280KiB time=00:00:02.73 bitrate=3836.4kbits/s speed=0.0165x elapsed=0:02:45.85    \nframe=   85 fps=0.5 q=30.3 size=    1280KiB time=00:00:02.76 bitrate=3790.2kbits/s speed=0.0166x elapsed=0:02:46.38    \nframe=   86 fps=0.5 q=34.5 size=    1280KiB time=00:00:02.80 bitrate=3745.0kbits/s speed=0.0168x elapsed=0:02:46.89    \nframe=   86 fps=0.5 q=34.5 size=    1280KiB time=00:00:02.80 bitrate=3745.0kbits/s speed=0.0167x elapsed=0:02:47.45    \nframe=   86 fps=0.5 q=34.5 size=    1280KiB time=00:00:02.80 bitrate=3745.0kbits/s speed=0.0167x elapsed=0:02:47.98    \nframe=   86 fps=0.5 q=34.5 size=    1280KiB time=00:00:02.80 bitrate=3745.0kbits/s speed=0.0166x elapsed=0:02:48.60    \nframe=   86 fps=0.5 q=34.5 size=    1280KiB time=00:00:02.80 bitrate=3745.0kbits/s speed=0.0165x elapsed=0:02:49.25    \nframe=   87 fps=0.5 q=36.2 size=    1280KiB time=00:00:02.83 bitrate=3701.0kbits/s speed=0.0167x elapsed=0:02:49.86    \nframe=   87 fps=0.5 q=36.2 size=    1280KiB time=00:00:02.83 bitrate=3701.0kbits/s speed=0.0166x elapsed=0:02:50.42    \nframe=   87 fps=0.5 q=36.2 size=    1280KiB time=00:00:02.83 bitrate=3701.0kbits/s speed=0.0166x elapsed=0:02:50.94    \nframe=   87 fps=0.5 q=36.2 size=    1280KiB time=00:00:02.83 bitrate=3701.0kbits/s speed=0.0165x elapsed=0:02:51.48    \nframe=   87 fps=0.5 q=36.2 size=    1280KiB time=00:00:02.83 bitrate=3701.0kbits/s speed=0.0165x elapsed=0:02:52.00    \nframe=   88 fps=0.5 q=36.2 size=    1280KiB time=00:00:02.86 bitrate=3657.9kbits/s speed=0.0166x elapsed=0:02:52.54    \nframe=   88 fps=0.5 q=36.2 size=    1280KiB time=00:00:02.86 bitrate=3657.9kbits/s speed=0.0166x elapsed=0:02:53.07    \nframe=   88 fps=0.5 q=36.2 size=    1280KiB time=00:00:02.86 bitrate=3657.9kbits/s speed=0.0165x elapsed=0:02:53.58    \nframe=   88 fps=0.5 q=36.2 size=    1280KiB time=00:00:02.86 bitrate=3657.9kbits/s speed=0.0165x elapsed=0:02:54.10    \nframe=   89 fps=0.5 q=36.0 size=    1280KiB time=00:00:02.90 bitrate=3615.9kbits/s speed=0.0166x elapsed=0:02:54.61    \nframe=   89 fps=0.5 q=36.0 size=    1280KiB time=00:00:02.90 bitrate=3615.9kbits/s speed=0.0166x elapsed=0:02:55.14    \nframe=   89 fps=0.5 q=36.0 size=    1280KiB time=00:00:02.90 bitrate=3615.9kbits/s speed=0.0165x elapsed=0:02:55.69    \nframe=   90 fps=0.5 q=30.2 size=    1280KiB time=00:00:02.93 bitrate=3574.8kbits/s speed=0.0166x elapsed=0:02:56.23    \nframe=   90 fps=0.5 q=30.2 size=    1280KiB time=00:00:02.93 bitrate=3574.8kbits/s speed=0.0166x elapsed=0:02:56.76    \nframe=   90 fps=0.5 q=30.2 size=    1280KiB time=00:00:02.93 bitrate=3574.8kbits/s speed=0.0165x elapsed=0:02:57.27    \nframe=   91 fps=0.5 q=34.4 size=    1280KiB time=00:00:02.96 bitrate=3534.6kbits/s speed=0.0167x elapsed=0:02:57.82    \nframe=   91 fps=0.5 q=34.4 size=    1280KiB time=00:00:02.96 bitrate=3534.6kbits/s speed=0.0166x elapsed=0:02:58.36    \nframe=   92 fps=0.5 q=36.0 size=    1280KiB time=00:00:03.00 bitrate=3495.4kbits/s speed=0.0168x elapsed=0:02:58.88    \nframe=   92 fps=0.5 q=36.0 size=    1280KiB time=00:00:03.00 bitrate=3495.4kbits/s speed=0.0167x elapsed=0:02:59.42    \nframe=   92 fps=0.5 q=36.0 size=    1280KiB time=00:00:03.00 bitrate=3495.4kbits/s speed=0.0167x elapsed=0:02:59.95    \nframe=   92 fps=0.5 q=36.0 size=    1280KiB time=00:00:03.00 bitrate=3495.4kbits/s speed=0.0166x elapsed=0:03:00.48    \nframe=   92 fps=0.5 q=36.0 size=    1280KiB time=00:00:03.00 bitrate=3495.4kbits/s speed=0.0166x elapsed=0:03:01.01    \nframe=   92 fps=0.5 q=36.0 size=    1280KiB time=00:00:03.00 bitrate=3495.4kbits/s speed=0.0165x elapsed=0:03:01.53    \nframe=   92 fps=0.5 q=36.0 size=    1280KiB time=00:00:03.00 bitrate=3495.4kbits/s speed=0.0165x elapsed=0:03:02.07    \nframe=   93 fps=0.5 q=35.9 size=    1280KiB time=00:00:03.03 bitrate=3457.0kbits/s speed=0.0166x elapsed=0:03:02.60    \nframe=   93 fps=0.5 q=35.9 size=    1280KiB time=00:00:03.03 bitrate=3457.0kbits/s speed=0.0166x elapsed=0:03:03.14    \nframe=   94 fps=0.5 q=35.5 size=    1280KiB time=00:00:03.06 bitrate=3419.4kbits/s speed=0.0167x elapsed=0:03:03.65    \nframe=   94 fps=0.5 q=35.5 size=    1280KiB time=00:00:03.06 bitrate=3419.4kbits/s speed=0.0166x elapsed=0:03:04.19    \nframe=   94 fps=0.5 q=35.5 size=    1280KiB time=00:00:03.06 bitrate=3419.4kbits/s speed=0.0166x elapsed=0:03:04.70    \nframe=   95 fps=0.5 q=30.0 size=    1280KiB time=00:00:03.10 bitrate=3382.6kbits/s speed=0.0167x elapsed=0:03:05.22    \nframe=   95 fps=0.5 q=30.0 size=    1280KiB time=00:00:03.10 bitrate=3382.6kbits/s speed=0.0167x elapsed=0:03:05.77    \nframe=   95 fps=0.5 q=30.0 size=    1280KiB time=00:00:03.10 bitrate=3382.6kbits/s speed=0.0166x elapsed=0:03:06.28    \nframe=   96 fps=0.5 q=33.2 size=    1280KiB time=00:00:03.13 bitrate=3346.6kbits/s speed=0.0168x elapsed=0:03:06.81    \nframe=   96 fps=0.5 q=33.2 size=    1280KiB time=00:00:03.13 bitrate=3346.6kbits/s speed=0.0167x elapsed=0:03:07.33    \nframe=   96 fps=0.5 q=33.2 size=    1280KiB time=00:00:03.13 bitrate=3346.6kbits/s speed=0.0167x elapsed=0:03:07.85    \nframe=   96 fps=0.5 q=33.2 size=    1280KiB time=00:00:03.13 bitrate=3346.6kbits/s speed=0.0166x elapsed=0:03:08.37    \nframe=   96 fps=0.5 q=33.2 size=    1280KiB time=00:00:03.13 bitrate=3346.6kbits/s speed=0.0166x elapsed=0:03:08.89    \nframe=   96 fps=0.5 q=33.2 size=    1280KiB time=00:00:03.13 bitrate=3346.6kbits/s speed=0.0165x elapsed=0:03:09.42    \nframe=   96 fps=0.5 q=33.2 size=    1280KiB time=00:00:03.13 bitrate=3346.6kbits/s speed=0.0165x elapsed=0:03:09.94    \nframe=   97 fps=0.5 q=34.7 size=    1280KiB time=00:00:03.16 bitrate=3311.4kbits/s speed=0.0166x elapsed=0:03:10.46    \nframe=   98 fps=0.5 q=35.0 size=    1280KiB time=00:00:03.20 bitrate=3276.9kbits/s speed=0.0168x elapsed=0:03:10.98    \nframe=   98 fps=0.5 q=35.0 size=    1280KiB time=00:00:03.20 bitrate=3276.9kbits/s speed=0.0167x elapsed=0:03:11.51    \nframe=   99 fps=0.5 q=30.0 size=    1280KiB time=00:00:03.23 bitrate=3243.1kbits/s speed=0.0168x elapsed=0:03:12.03    \nframe=   99 fps=0.5 q=30.0 size=    1280KiB time=00:00:03.23 bitrate=3243.1kbits/s speed=0.0168x elapsed=0:03:12.54    \nframe=  100 fps=0.5 q=32.9 size=    1536KiB time=00:00:03.26 bitrate=3852.0kbits/s speed=0.0169x elapsed=0:03:13.07    \nframe=  100 fps=0.5 q=32.9 size=    1536KiB time=00:00:03.26 bitrate=3852.0kbits/s speed=0.0169x elapsed=0:03:13.62    \nframe=  100 fps=0.5 q=32.9 size=    1536KiB time=00:00:03.26 bitrate=3852.0kbits/s speed=0.0168x elapsed=0:03:14.19    \nframe=  100 fps=0.5 q=32.9 size=    1536KiB time=00:00:03.26 bitrate=3852.0kbits/s speed=0.0168x elapsed=0:03:14.74    \nframe=  100 fps=0.5 q=32.9 size=    1536KiB time=00:00:03.26 bitrate=3852.0kbits/s speed=0.0167x elapsed=0:03:15.28    \nframe=  100 fps=0.5 q=32.9 size=    1536KiB time=00:00:03.26 bitrate=3852.0kbits/s speed=0.0167x elapsed=0:03:15.81    \nframe=  101 fps=0.5 q=35.7 size=    1536KiB time=00:00:03.30 bitrate=3813.1kbits/s speed=0.0168x elapsed=0:03:16.34    \nframe=  101 fps=0.5 q=35.7 size=    1536KiB time=00:00:03.30 bitrate=3813.1kbits/s speed=0.0168x elapsed=0:03:16.86    \nframe=  102 fps=0.5 q=35.5 size=    1536KiB time=00:00:03.33 bitrate=3775.0kbits/s speed=0.0169x elapsed=0:03:17.38    \nframe=  102 fps=0.5 q=35.5 size=    1536KiB time=00:00:03.33 bitrate=3775.0kbits/s speed=0.0168x elapsed=0:03:17.89    \nframe=  103 fps=0.5 q=30.1 size=    1536KiB time=00:00:03.36 bitrate=3737.6kbits/s speed=0.017x elapsed=0:03:18.40    \nframe=  104 fps=0.5 q=33.1 size=    1536KiB time=00:00:03.40 bitrate=3701.0kbits/s speed=0.0171x elapsed=0:03:18.93    \nframe=  104 fps=0.5 q=33.1 size=    1536KiB time=00:00:03.40 bitrate=3701.0kbits/s speed=0.017x elapsed=0:03:19.45    \nframe=  104 fps=0.5 q=33.1 size=    1536KiB time=00:00:03.40 bitrate=3701.0kbits/s speed=0.017x elapsed=0:03:19.97    \nframe=  105 fps=0.5 q=35.8 size=    1536KiB time=00:00:03.43 bitrate=3665.0kbits/s speed=0.0171x elapsed=0:03:20.49    \nframe=  105 fps=0.5 q=35.8 size=    1536KiB time=00:00:03.43 bitrate=3665.0kbits/s speed=0.0171x elapsed=0:03:21.01    \nframe=  105 fps=0.5 q=35.8 size=    1536KiB time=00:00:03.43 bitrate=3665.0kbits/s speed=0.017x elapsed=0:03:21.55    \nframe=  105 fps=0.5 q=35.8 size=    1536KiB time=00:00:03.43 bitrate=3665.0kbits/s speed=0.017x elapsed=0:03:22.11    \nframe=  105 fps=0.5 q=35.8 size=    1536KiB time=00:00:03.43 bitrate=3665.0kbits/s speed=0.0169x elapsed=0:03:22.67    \nframe=  105 fps=0.5 q=35.8 size=    1536KiB time=00:00:03.43 bitrate=3665.0kbits/s speed=0.0169x elapsed=0:03:23.22    \nframe=  106 fps=0.5 q=35.6 size=    1536KiB time=00:00:03.46 bitrate=3629.8kbits/s speed=0.017x elapsed=0:03:23.82    \nframe=  106 fps=0.5 q=35.6 size=    1536KiB time=00:00:03.46 bitrate=3629.8kbits/s speed=0.017x elapsed=0:03:24.44    \nframe=  106 fps=0.5 q=35.6 size=    1536KiB time=00:00:03.46 bitrate=3629.8kbits/s speed=0.0169x elapsed=0:03:25.05    \nframe=  106 fps=0.5 q=35.6 size=    1536KiB time=00:00:03.46 bitrate=3629.8kbits/s speed=0.0169x elapsed=0:03:25.58    \nframe=  107 fps=0.5 q=30.2 size=    1536KiB time=00:00:03.50 bitrate=3595.2kbits/s speed=0.017x elapsed=0:03:26.13    \nframe=  107 fps=0.5 q=30.2 size=    1536KiB time=00:00:03.50 bitrate=3595.2kbits/s speed=0.0169x elapsed=0:03:26.72    \nframe=  107 fps=0.5 q=30.2 size=    1536KiB time=00:00:03.50 bitrate=3595.2kbits/s speed=0.0169x elapsed=0:03:27.23    \nframe=  108 fps=0.5 q=32.8 size=    1536KiB time=00:00:03.53 bitrate=3561.3kbits/s speed=0.017x elapsed=0:03:27.76    \nframe=  108 fps=0.5 q=32.8 size=    1536KiB time=00:00:03.53 bitrate=3561.3kbits/s speed=0.017x elapsed=0:03:28.30    \nframe=  108 fps=0.5 q=32.8 size=    1536KiB time=00:00:03.53 bitrate=3561.3kbits/s speed=0.0169x elapsed=0:03:28.85    \nframe=  108 fps=0.5 q=32.8 size=    1536KiB time=00:00:03.53 bitrate=3561.3kbits/s speed=0.0169x elapsed=0:03:29.38    \nframe=  108 fps=0.5 q=32.8 size=    1536KiB time=00:00:03.53 bitrate=3561.3kbits/s speed=0.0168x elapsed=0:03:29.91    \nframe=  109 fps=0.5 q=35.5 size=    1536KiB time=00:00:03.56 bitrate=3528.0kbits/s speed=0.0169x elapsed=0:03:30.44    \nframe=  109 fps=0.5 q=35.5 size=    1536KiB time=00:00:03.56 bitrate=3528.0kbits/s speed=0.0169x elapsed=0:03:30.95    \nframe=  109 fps=0.5 q=35.5 size=    1536KiB time=00:00:03.56 bitrate=3528.0kbits/s speed=0.0169x elapsed=0:03:31.48    \nframe=  110 fps=0.5 q=35.4 size=    1536KiB time=00:00:03.60 bitrate=3495.4kbits/s speed=0.017x elapsed=0:03:32.01    \nframe=  112 fps=0.5 q=32.6 size=    1536KiB time=00:00:03.66 bitrate=3431.8kbits/s speed=0.0172x elapsed=0:03:32.57    \nframe=  112 fps=0.5 q=32.6 size=    1536KiB time=00:00:03.66 bitrate=3431.8kbits/s speed=0.0172x elapsed=0:03:33.09    \nframe=  112 fps=0.5 q=32.6 size=    1536KiB time=00:00:03.66 bitrate=3431.8kbits/s speed=0.0172x elapsed=0:03:33.62    \nframe=  112 fps=0.5 q=32.6 size=    1536KiB time=00:00:03.66 bitrate=3431.8kbits/s speed=0.0171x elapsed=0:03:34.14    \nframe=  113 fps=0.5 q=35.1 size=    1536KiB time=00:00:03.70 bitrate=3400.9kbits/s speed=0.0172x elapsed=0:03:34.66    \nframe=  113 fps=0.5 q=35.1 size=    1536KiB time=00:00:03.70 bitrate=3400.9kbits/s speed=0.0172x elapsed=0:03:35.18    \nframe=  115 fps=0.5 q=30.1 size=    1536KiB time=00:00:03.76 bitrate=3340.7kbits/s speed=0.0175x elapsed=0:03:35.73    \nframe=  115 fps=0.5 q=30.1 size=    1536KiB time=00:00:03.76 bitrate=3340.7kbits/s speed=0.0174x elapsed=0:03:36.24    \nframe=  116 fps=0.5 q=32.8 size=    1792KiB time=00:00:03.80 bitrate=3863.3kbits/s speed=0.0175x elapsed=0:03:36.76    \nframe=  116 fps=0.5 q=32.8 size=    1792KiB time=00:00:03.80 bitrate=3863.3kbits/s speed=0.0175x elapsed=0:03:37.27    \nframe=  116 fps=0.5 q=32.8 size=    1792KiB time=00:00:03.80 bitrate=3863.3kbits/s speed=0.0174x elapsed=0:03:37.78    \nframe=  117 fps=0.5 q=35.5 size=    1792KiB time=00:00:03.83 bitrate=3829.7kbits/s speed=0.0176x elapsed=0:03:38.31    \nframe=  117 fps=0.5 q=35.5 size=    1792KiB time=00:00:03.83 bitrate=3829.7kbits/s speed=0.0175x elapsed=0:03:38.83    \nframe=  117 fps=0.5 q=35.5 size=    1792KiB time=00:00:03.83 bitrate=3829.7kbits/s speed=0.0175x elapsed=0:03:39.39    \nframe=  117 fps=0.5 q=35.5 size=    1792KiB time=00:00:03.83 bitrate=3829.7kbits/s speed=0.0174x elapsed=0:03:39.91    \nframe=  117 fps=0.5 q=35.5 size=    1792KiB time=00:00:03.83 bitrate=3829.7kbits/s speed=0.0174x elapsed=0:03:40.43    \nframe=  118 fps=0.5 q=35.2 size=    1792KiB time=00:00:03.86 bitrate=3796.7kbits/s speed=0.0175x elapsed=0:03:40.95    \nframe=  118 fps=0.5 q=35.2 size=    1792KiB time=00:00:03.86 bitrate=3796.7kbits/s speed=0.0175x elapsed=0:03:41.47    \nframe=  118 fps=0.5 q=35.2 size=    1792KiB time=00:00:03.86 bitrate=3796.7kbits/s speed=0.0174x elapsed=0:03:41.98    \nframe=  118 fps=0.5 q=35.2 size=    1792KiB time=00:00:03.86 bitrate=3796.7kbits/s speed=0.0174x elapsed=0:03:42.50    \nframe=  119 fps=0.5 q=30.0 size=    1792KiB time=00:00:03.90 bitrate=3764.2kbits/s speed=0.0175x elapsed=0:03:43.03    \nframe=  120 fps=0.5 q=32.7 size=    1792KiB time=00:00:03.93 bitrate=3732.3kbits/s speed=0.0176x elapsed=0:03:43.54    \nframe=  120 fps=0.5 q=32.7 size=    1792KiB time=00:00:03.93 bitrate=3732.3kbits/s speed=0.0176x elapsed=0:03:44.06    \nframe=  120 fps=0.5 q=32.7 size=    1792KiB time=00:00:03.93 bitrate=3732.3kbits/s speed=0.0175x elapsed=0:03:44.58    \nframe=  120 fps=0.5 q=32.7 size=    1792KiB time=00:00:03.93 bitrate=3732.3kbits/s speed=0.0175x elapsed=0:03:45.12    \nframe=  120 fps=0.5 q=32.7 size=    1792KiB time=00:00:03.93 bitrate=3732.3kbits/s speed=0.0174x elapsed=0:03:45.64    \nframe=  120 fps=0.5 q=32.7 size=    1792KiB time=00:00:03.93 bitrate=3732.3kbits/s speed=0.0174x elapsed=0:03:46.16    \nframe=  121 fps=0.5 q=35.5 size=    1792KiB time=00:00:03.96 bitrate=3700.9kbits/s speed=0.0175x elapsed=0:03:46.67    \nframe=  121 fps=0.5 q=35.5 size=    1792KiB time=00:00:03.96 bitrate=3700.9kbits/s speed=0.0175x elapsed=0:03:47.19    \nframe=  121 fps=0.5 q=35.5 size=    1792KiB time=00:00:03.96 bitrate=3700.9kbits/s speed=0.0174x elapsed=0:03:47.71    \nframe=  121 fps=0.5 q=35.5 size=    1792KiB time=00:00:03.96 bitrate=3700.9kbits/s speed=0.0174x elapsed=0:03:48.23    \nframe=  122 fps=0.5 q=35.6 size=    1792KiB time=00:00:04.00 bitrate=3670.1kbits/s speed=0.0175x elapsed=0:03:48.75    \nframe=  122 fps=0.5 q=35.6 size=    1792KiB time=00:00:04.00 bitrate=3670.1kbits/s speed=0.0174x elapsed=0:03:49.28    \nframe=  122 fps=0.5 q=35.6 size=    1792KiB time=00:00:04.00 bitrate=3670.1kbits/s speed=0.0174x elapsed=0:03:49.84    \nframe=  122 fps=0.5 q=35.6 size=    1792KiB time=00:00:04.00 bitrate=3670.1kbits/s speed=0.0174x elapsed=0:03:50.37    \nframe=  123 fps=0.5 q=29.9 size=    1792KiB time=00:00:04.03 bitrate=3639.8kbits/s speed=0.0175x elapsed=0:03:50.91    \nframe=  123 fps=0.5 q=29.9 size=    1792KiB time=00:00:04.03 bitrate=3639.8kbits/s speed=0.0174x elapsed=0:03:51.44    \nframe=  123 fps=0.5 q=29.9 size=    1792KiB time=00:00:04.03 bitrate=3639.8kbits/s speed=0.0174x elapsed=0:03:51.98    \nframe=  123 fps=0.5 q=29.9 size=    1792KiB time=00:00:04.03 bitrate=3639.8kbits/s speed=0.0173x elapsed=0:03:52.51    \nframe=  124 fps=0.5 q=32.6 size=    1792KiB time=00:00:04.06 bitrate=3609.9kbits/s speed=0.0174x elapsed=0:03:53.04    \nframe=  124 fps=0.5 q=32.6 size=    1792KiB time=00:00:04.06 bitrate=3609.9kbits/s speed=0.0174x elapsed=0:03:53.58    \nframe=  124 fps=0.5 q=32.6 size=    1792KiB time=00:00:04.06 bitrate=3609.9kbits/s speed=0.0174x elapsed=0:03:54.11    \nframe=  124 fps=0.5 q=32.6 size=    1792KiB time=00:00:04.06 bitrate=3609.9kbits/s speed=0.0173x elapsed=0:03:54.63    \nframe=  124 fps=0.5 q=32.6 size=    1792KiB time=00:00:04.06 bitrate=3609.9kbits/s speed=0.0173x elapsed=0:03:55.17    \nframe=  125 fps=0.5 q=35.1 size=    1792KiB time=00:00:04.10 bitrate=3580.6kbits/s speed=0.0174x elapsed=0:03:55.69    \nframe=  125 fps=0.5 q=35.1 size=    1792KiB time=00:00:04.10 bitrate=3580.6kbits/s speed=0.0174x elapsed=0:03:56.21    \nframe=  125 fps=0.5 q=35.1 size=    1792KiB time=00:00:04.10 bitrate=3580.6kbits/s speed=0.0173x elapsed=0:03:56.73    \nframe=  126 fps=0.5 q=34.5 size=    1792KiB time=00:00:04.13 bitrate=3551.7kbits/s speed=0.0174x elapsed=0:03:57.26    \nframe=  127 fps=0.5 q=29.8 size=    1792KiB time=00:00:04.16 bitrate=3523.3kbits/s speed=0.0175x elapsed=0:03:57.78    \nframe=  127 fps=0.5 q=29.8 size=    1792KiB time=00:00:04.16 bitrate=3523.3kbits/s speed=0.0175x elapsed=0:03:58.31    \nframe=  128 fps=0.5 q=32.6 size=    1792KiB time=00:00:04.20 bitrate=3495.3kbits/s speed=0.0176x elapsed=0:03:58.86    \nframe=  128 fps=0.5 q=32.6 size=    1792KiB time=00:00:04.20 bitrate=3495.3kbits/s speed=0.0175x elapsed=0:03:59.43    \nframe=  128 fps=0.5 q=32.6 size=    1792KiB time=00:00:04.20 bitrate=3495.3kbits/s speed=0.0175x elapsed=0:04:00.04    \nframe=  128 fps=0.5 q=32.6 size=    1792KiB time=00:00:04.20 bitrate=3495.3kbits/s speed=0.0175x elapsed=0:04:00.67    \nframe=  128 fps=0.5 q=32.6 size=    1792KiB time=00:00:04.20 bitrate=3495.3kbits/s speed=0.0174x elapsed=0:04:01.31    \nframe=  128 fps=0.5 q=32.6 size=    1792KiB time=00:00:04.20 bitrate=3495.3kbits/s speed=0.0174x elapsed=0:04:01.94    \nframe=  129 fps=0.5 q=34.5 size=    1792KiB time=00:00:04.23 bitrate=3467.8kbits/s speed=0.0175x elapsed=0:04:02.48    \nframe=  130 fps=0.5 q=35.2 size=    1792KiB time=00:00:04.26 bitrate=3440.7kbits/s speed=0.0176x elapsed=0:04:03.08    \nframe=  130 fps=0.5 q=35.2 size=    1792KiB time=00:00:04.26 bitrate=3440.7kbits/s speed=0.0175x elapsed=0:04:03.61    \nframe=  130 fps=0.5 q=35.2 size=    1792KiB time=00:00:04.26 bitrate=3440.7kbits/s speed=0.0175x elapsed=0:04:04.19    \nframe=  130 fps=0.5 q=35.2 size=    1792KiB time=00:00:04.26 bitrate=3440.7kbits/s speed=0.0174x elapsed=0:04:04.80    \nframe=  130 fps=0.5 q=35.2 size=    1792KiB time=00:00:04.26 bitrate=3440.7kbits/s speed=0.0174x elapsed=0:04:05.44    \nframe=  130 fps=0.5 q=35.2 size=    1792KiB time=00:00:04.26 bitrate=3440.7kbits/s speed=0.0173x elapsed=0:04:06.00    \nframe=  131 fps=0.5 q=29.7 size=    1792KiB time=00:00:04.30 bitrate=3414.1kbits/s speed=0.0174x elapsed=0:04:06.56    \nframe=  131 fps=0.5 q=29.7 size=    1792KiB time=00:00:04.30 bitrate=3414.1kbits/s speed=0.0174x elapsed=0:04:07.08    \nframe=  131 fps=0.5 q=29.7 size=    1792KiB time=00:00:04.30 bitrate=3414.1kbits/s speed=0.0174x elapsed=0:04:07.61    \nframe=  131 fps=0.5 q=29.7 size=    1792KiB time=00:00:04.30 bitrate=3414.1kbits/s speed=0.0173x elapsed=0:04:08.14    \nframe=  131 fps=0.5 q=29.7 size=    1792KiB time=00:00:04.30 bitrate=3414.1kbits/s speed=0.0173x elapsed=0:04:08.69    \nframe=  132 fps=0.5 q=32.1 size=    2048KiB time=00:00:04.33 bitrate=3871.7kbits/s speed=0.0174x elapsed=0:04:09.21    \nframe=  132 fps=0.5 q=32.1 size=    2048KiB time=00:00:04.33 bitrate=3871.7kbits/s speed=0.0173x elapsed=0:04:09.77    \nframe=  132 fps=0.5 q=32.1 size=    2048KiB time=00:00:04.33 bitrate=3871.7kbits/s speed=0.0173x elapsed=0:04:10.30    \nframe=  132 fps=0.5 q=32.1 size=    2048KiB time=00:00:04.33 bitrate=3871.7kbits/s speed=0.0173x elapsed=0:04:10.84    \nframe=  133 fps=0.5 q=34.9 size=    2048KiB time=00:00:04.36 bitrate=3842.2kbits/s speed=0.0174x elapsed=0:04:11.36    \nframe=  133 fps=0.5 q=34.9 size=    2048KiB time=00:00:04.36 bitrate=3842.2kbits/s speed=0.0173x elapsed=0:04:11.88    \nframe=  133 fps=0.5 q=34.9 size=    2048KiB time=00:00:04.36 bitrate=3842.2kbits/s speed=0.0173x elapsed=0:04:12.42    \nframe=  133 fps=0.5 q=34.9 size=    2048KiB time=00:00:04.36 bitrate=3842.2kbits/s speed=0.0173x elapsed=0:04:12.97    \nframe=  134 fps=0.5 q=35.3 size=    2048KiB time=00:00:04.40 bitrate=3813.1kbits/s speed=0.0174x elapsed=0:04:13.48    \nframe=  134 fps=0.5 q=35.3 size=    2048KiB time=00:00:04.40 bitrate=3813.1kbits/s speed=0.0173x elapsed=0:04:14.00    \nframe=  135 fps=0.5 q=29.9 size=    2048KiB time=00:00:04.43 bitrate=3784.4kbits/s speed=0.0174x elapsed=0:04:14.52    \nframe=  136 fps=0.5 q=32.0 size=    2048KiB time=00:00:04.46 bitrate=3756.2kbits/s speed=0.0175x elapsed=0:04:15.05    \nframe=  136 fps=0.5 q=32.0 size=    2048KiB time=00:00:04.46 bitrate=3756.2kbits/s speed=0.0175x elapsed=0:04:15.58    \nframe=  137 fps=0.5 q=35.1 size=    2048KiB time=00:00:04.50 bitrate=3728.3kbits/s speed=0.0176x elapsed=0:04:16.09    \nframe=  137 fps=0.5 q=35.1 size=    2048KiB time=00:00:04.50 bitrate=3728.3kbits/s speed=0.0175x elapsed=0:04:16.61    \nframe=  138 fps=0.5 q=34.6 size=    2048KiB time=00:00:04.53 bitrate=3700.9kbits/s speed=0.0176x elapsed=0:04:17.14    \nframe=  138 fps=0.5 q=34.6 size=    2048KiB time=00:00:04.53 bitrate=3700.9kbits/s speed=0.0176x elapsed=0:04:17.65    \nframe=  139 fps=0.5 q=30.1 size=    2048KiB time=00:00:04.53 bitrate=3700.9kbits/s speed=0.0176x elapsed=0:04:18.17    \nframe=  139 fps=0.5 q=30.1 size=    2048KiB time=00:00:04.56 bitrate=3673.9kbits/s speed=0.0177x elapsed=0:04:18.72    \nframe=  139 fps=0.5 q=30.1 size=    2048KiB time=00:00:04.56 bitrate=3673.9kbits/s speed=0.0176x elapsed=0:04:19.23    \nframe=  140 fps=0.5 q=31.7 size=    2048KiB time=00:00:04.60 bitrate=3647.3kbits/s speed=0.0177x elapsed=0:04:19.75    \nframe=  140 fps=0.5 q=31.7 size=    2048KiB time=00:00:04.60 bitrate=3647.3kbits/s speed=0.0177x elapsed=0:04:20.26    \nframe=  141 fps=0.5 q=33.5 size=    2048KiB time=00:00:04.63 bitrate=3621.1kbits/s speed=0.0178x elapsed=0:04:20.78    \nframe=  141 fps=0.5 q=33.5 size=    2048KiB time=00:00:04.63 bitrate=3621.1kbits/s speed=0.0177x elapsed=0:04:21.30    \nframe=  142 fps=0.5 q=33.9 size=    2048KiB time=00:00:04.66 bitrate=3595.2kbits/s speed=0.0178x elapsed=0:04:21.82    \nframe=  142 fps=0.5 q=33.9 size=    2048KiB time=00:00:04.66 bitrate=3595.2kbits/s speed=0.0178x elapsed=0:04:22.35    \nframe=  142 fps=0.5 q=33.9 size=    2048KiB time=00:00:04.66 bitrate=3595.2kbits/s speed=0.0178x elapsed=0:04:22.89    \nframe=  143 fps=0.5 q=30.3 size=    2048KiB time=00:00:04.70 bitrate=3569.7kbits/s speed=0.0178x elapsed=0:04:23.46    \nframe=  143 fps=0.5 q=30.3 size=    2048KiB time=00:00:04.70 bitrate=3569.7kbits/s speed=0.0178x elapsed=0:04:23.97    \nframe=  144 fps=0.5 q=31.1 size=    2048KiB time=00:00:04.73 bitrate=3544.6kbits/s speed=0.0179x elapsed=0:04:24.50    \nframe=  144 fps=0.5 q=31.1 size=    2048KiB time=00:00:04.73 bitrate=3544.6kbits/s speed=0.0179x elapsed=0:04:25.04    \nframe=  144 fps=0.5 q=31.1 size=    2048KiB time=00:00:04.73 bitrate=3544.6kbits/s speed=0.0178x elapsed=0:04:25.56    \nframe=  144 fps=0.5 q=31.1 size=    2048KiB time=00:00:04.73 bitrate=3544.6kbits/s speed=0.0178x elapsed=0:04:26.10    \nframe=  144 fps=0.5 q=31.1 size=    2048KiB time=00:00:04.73 bitrate=3544.6kbits/s speed=0.0178x elapsed=0:04:26.64    \nframe=  144 fps=0.5 q=31.1 size=    2048KiB time=00:00:04.73 bitrate=3544.6kbits/s speed=0.0177x elapsed=0:04:27.15    \nframe=  145 fps=0.5 q=33.7 size=    2048KiB time=00:00:04.76 bitrate=3519.8kbits/s speed=0.0178x elapsed=0:04:27.70    \nframe=  145 fps=0.5 q=33.7 size=    2048KiB time=00:00:04.76 bitrate=3519.8kbits/s speed=0.0178x elapsed=0:04:28.27    \nframe=  146 fps=0.5 q=32.8 size=    2048KiB time=00:00:04.80 bitrate=3495.3kbits/s speed=0.0179x elapsed=0:04:28.83    \nframe=  146 fps=0.5 q=32.8 size=    2048KiB time=00:00:04.80 bitrate=3495.3kbits/s speed=0.0178x elapsed=0:04:29.35    \nframe=  146 fps=0.5 q=32.8 size=    2048KiB time=00:00:04.80 bitrate=3495.3kbits/s speed=0.0178x elapsed=0:04:29.87    \nframe=  147 fps=0.5 q=31.9 size=    2048KiB time=00:00:04.83 bitrate=3471.2kbits/s speed=0.0179x elapsed=0:04:30.40    \nframe=  147 fps=0.5 q=31.9 size=    2048KiB time=00:00:04.83 bitrate=3471.2kbits/s speed=0.0178x elapsed=0:04:30.93    \nframe=  147 fps=0.5 q=31.9 size=    2048KiB time=00:00:04.83 bitrate=3471.2kbits/s speed=0.0178x elapsed=0:04:31.45    \nframe=  147 fps=0.5 q=31.9 size=    2048KiB time=00:00:04.83 bitrate=3471.2kbits/s speed=0.0178x elapsed=0:04:32.04    \nframe=  148 fps=0.5 q=29.2 size=    2304KiB time=00:00:04.86 bitrate=3878.4kbits/s speed=0.0179x elapsed=0:04:32.59    \nframe=  148 fps=0.5 q=29.2 size=    2304KiB time=00:00:04.86 bitrate=3878.4kbits/s speed=0.0178x elapsed=0:04:33.15    \nframe=  148 fps=0.5 q=29.2 size=    2304KiB time=00:00:04.86 bitrate=3878.4kbits/s speed=0.0178x elapsed=0:04:33.76    \nframe=  148 fps=0.5 q=29.2 size=    2304KiB time=00:00:04.86 bitrate=3878.4kbits/s speed=0.0177x elapsed=0:04:34.41    \nframe=  148 fps=0.5 q=29.2 size=    2304KiB time=00:00:04.86 bitrate=3878.4kbits/s speed=0.0177x elapsed=0:04:35.06    \nframe=  148 fps=0.5 q=29.2 size=    2304KiB time=00:00:04.86 bitrate=3878.4kbits/s speed=0.0177x elapsed=0:04:35.72    \nframe=  149 fps=0.5 q=30.2 size=    2304KiB time=00:00:04.90 bitrate=3852.0kbits/s speed=0.0177x elapsed=0:04:36.28    \nframe=  149 fps=0.5 q=30.2 size=    2304KiB time=00:00:04.90 bitrate=3852.0kbits/s speed=0.0177x elapsed=0:04:36.85    \nframe=  149 fps=0.5 q=30.2 size=    2304KiB time=00:00:04.90 bitrate=3852.0kbits/s speed=0.0177x elapsed=0:04:37.40    \nframe=  149 fps=0.5 q=30.2 size=    2304KiB time=00:00:04.90 bitrate=3852.0kbits/s speed=0.0176x elapsed=0:04:37.95    \nframe=  149 fps=0.5 q=30.2 size=    2304KiB time=00:00:04.90 bitrate=3852.0kbits/s speed=0.0176x elapsed=0:04:38.49    \n[mp4 @ 000001ccdf6a9740] Starting second pass: moving the moov atom to the beginning of the file\n[out#0/mp4 @ 000001ccdf69ac00] video:2381KiB audio:0KiB subtitle:0KiB other streams:0KiB global headers:2KiB muxing overhead: 0.218215%\nframe=  150 fps=0.5 q=29.9 Lsize=    2386KiB time=00:00:04.93 bitrate=3962.1kbits/s speed=0.0177x elapsed=0:04:38.74    \nx265 [info]: frame I:      1, Avg QP:30.33  kb/s: 22950.00\nx265 [info]: frame P:     37, Avg QP:30.85  kb/s: 11361.68\nx265 [info]: frame B:    112, Avg QP:35.50  kb/s: 1264.61 \nx265 [info]: Weighted P-Frames: Y:13.5% UV:13.5%\n\nencoded 150 frames in 277.45s (0.54 fps), 3899.79 kb/s, Avg QP:34.32\n",
  "seconds": 279.53148126602173,
  "probe_out": {}
}